HIERARCHY
ROOT Hips
{
	OFFSET 0.00000 0.00000 0.00000
	CHANNELS 6 Xposition Yposition Zposition Yrotation Zrotation Xrotation 
	JOINT Lumbar
	{
		OFFSET 0 0 0
		CHANNELS 3 Zrotation Xrotation Yrotation
		JOINT Neck
		{
			OFFSET 0.00 0.2701 0.00
			CHANNELS 3 Zrotation Xrotation Yrotation
			End Site
			{
				OFFSET 0.00 0.1379 0.00
			}
		}
		JOINT RightShoulder
		{
			OFFSET 0.0119 0.2289 0.1181
			CHANNELS 3 Zrotation Xrotation Yrotation
			JOINT RightElbow
			{
				OFFSET 0.00 -0.1475 0.00
				CHANNELS 2 Zrotation Yrotation
				JOINT RightWrist
				{
					OFFSET 0.00 -0.1605 0.00
					CHANNELS 2 Zrotation Xrotation
					End Site
					{
						OFFSET 0.0040 -0.1068 0.0006
					}
				}
			}
		}
		JOINT LeftShoulder
		{
			OFFSET 0.0119 0.2289 -0.1181
			CHANNELS 3 Zrotation Xrotation Yrotation
			JOINT LeftElbow
			{
				OFFSET 0.00 -0.1475 0.00
				CHANNELS 2 Zrotation Yrotation
				JOINT LeftWrist
				{
					OFFSET 0.00 -0.1605 0.00
					CHANNELS 2 Zrotation Xrotation
					End Site
					{
						OFFSET 0.0040 -0.1068 -0.0006
					}
				}
			}
		}
	}
	JOINT RightHip
	{
		OFFSET 0.0316 -0.0424 0.0458
		CHANNELS 3 Zrotation Xrotation Yrotation
		JOINT RightKnee
		{
			OFFSET 0.00 -0.2438 0.00
			CHANNELS 1 Zrotation
			JOINT RightAnkle
			{
				OFFSET 0.00 -0.2449 0.00
				CHANNELS 3 Zrotation Xrotation Yrotation
				End Site
				{
					OFFSET 0.1237 -0.0542 0.0051
				}
			}
		}
	}
	JOINT LeftHip
	{
		OFFSET 0.0316 -0.0424 -0.0458
		CHANNELS 3 Zrotation Xrotation Yrotation
		JOINT LeftKnee
		{
			OFFSET 0.00 -0.2438 0.00
			CHANNELS 1 Zrotation
			JOINT LeftAnkle
			{
				OFFSET 0.00 -0.2449 0.00
				CHANNELS 3 Zrotation Xrotation Yrotation
				End Site
				{
					OFFSET 0.1237 -0.0542 -0.0051
				}
			}
		}
	}
}
MOTION
Frames: 28
Frame Time: 0.02
0.52509 0.56894 -0.19913 844.94249 0 -7.29422 -4.26108 9.48049 1.0848 -33.44002 -4.05114 -3.99318 19.23637 -10.27677 -0.5819 9.20896 82.37269 -1.98389 -2.78318 23.11399 48.27642 -46.78197 90.79288 -82.35506 0.41103 0.8946 16.57837 4.4556 -0.3099 -45.27108 -4.43259 -3.52072 -7.8158 2.05096 -1.12566 -3.36646 -19.48954 9.87324 0.77072 -2.31093
0.52136 0.56849 -0.20643 845.7946 0 -7.1261 -4.38403 9.36808 0.90357 -33.33718 -3.86229 -4.05216 18.06689 -10.34463 -0.19616 9.08224 82.17397 -1.92201 -2.53837 22.7229 48.18929 -46.54222 90.84197 -82.42459 0.49525 0.79092 16.85465 4.27395 0.52443 -41.30893 -4.26217 -3.56018 -7.51439 1.13797 -1.12216 -3.91362 -19.17478 10.21655 0.50253 -2.53615
0.51771 0.56779 -0.21371 846.61439 0 -6.87986 -4.52823 9.17734 0.7864 -33.17462 -3.71646 -4.08271 17.01084 -10.36458 0.27498 8.9314 81.95084 -1.84753 -2.26654 22.35048 48.1191 -46.39518 90.90526 -82.55742 0.68007 0.67172 16.96306 3.98323 1.27973 -37.02719 -4.30465 -3.54515 -6.85882 0.27356 -1.15201 -4.41452 -18.92469 10.56271 0.17194 -2.82521
0.51402 0.56719 -0.22101 847.44668 0 -6.67008 -4.66239 9.0244 0.64568 -33.03654 -3.55476 -4.12454 15.91832 -10.4039 0.69802 8.79425 81.74807 -1.77589 -2.0128 21.96975 48.0406 -46.20752 90.95941 -82.64822 0.80495 0.56372 17.13948 3.74574 2.05742 -32.90808 -4.24333 -3.54849 -6.35542 -0.60925 -1.16283 -4.93409 -18.65538 10.91055 -0.13422 -3.08524
0.51035 0.56665 -0.22823 848.28668 0 -6.45382 -4.79939 8.859 0.48493 -32.90673 -3.37581 -4.17227 14.75925 -10.45404 1.17753 8.64951 81.50967 -1.71487 -1.73485 21.58439 47.96201 -46.01084 91.02514 -82.79198 0.98659 0.43717 17.3426 3.49216 2.89801 -28.6712 -4.21162 -3.57889 -5.88058 -1.50955 -1.19135 -5.46401 -18.33757 11.24739 -0.42154 -3.33908
0.50665 0.56594 -0.23563 849.10388 0 -6.23329 -4.93433 8.70194 0.37977 -32.74745 -3.24358 -4.20126 13.76997 -10.47033 1.55319 8.51361 81.33788 -1.63045 -1.50154 21.21573 47.88874 -45.85626 91.06988 -82.84298 1.07659 0.34624 17.45391 3.24732 3.58826 -24.63286 -4.17075 -3.54102 -5.26871 -2.35983 -1.18995 -5.96116 -18.14104 11.60606 -0.76373 -3.62384
0.50287 0.56482 -0.24345 849.86174 0 -6.02262 -5.067 8.59043 0.41274 -32.51175 -3.23114 -4.1865 13.18459 -10.40064 1.61873 8.40484 81.36171 -1.47044 -1.38879 20.87504 47.82503 -45.79192 91.05507 -82.60565 0.87066 0.35411 17.34621 3.04283 3.86012 -21.07295 -4.02872 -3.31475 -4.32356 -3.09818 -1.10275 -6.37892 -18.23267 12.03712 -1.24163 -3.9731
0.49906 0.56355 -0.25146 850.59869 0 -5.81065 -5.19503 8.49026 0.49901 -32.25074 -3.26439 -4.1538 12.77382 -10.29905 1.57432 8.3059 81.45187 -1.28985 -1.3234 20.55369 47.76666 -45.7678 91.01827 -82.276 0.57241 0.39905 17.15397 2.85309 3.98532 -17.75658 -3.87398 -3.02389 -3.2608 -3.7839 -0.98279 -6.7647 -18.45221 12.4866 -1.77219 -4.35333
0.49525 0.56235 -0.25943 851.3482 0 -5.59751 -5.31967 8.38269 0.56 -32.00769 -3.27593 -4.12882 12.30634 -10.21487 1.57994 8.20382 81.50753 -1.12805 -1.24241 20.2324 47.70681 -45.72763 90.99032 -81.99994 0.32899 0.42936 17.00617 2.66304 4.19291 -14.42924 -3.74071 -2.77112 -2.28021 -4.48587 -0.87498 -7.16592 -18.63133 12.92051 -2.28036 -4.72327
0.49149 0.56113 -0.26722 852.08379 0 -5.38747 -5.46889 8.2802 0.62722 -31.73448 -3.2923 -4.10478 11.74386 -10.11729 1.59047 8.09497 81.58095 -0.92638 -1.13586 19.8732 47.6434 -45.68082 90.96778 -81.67745 0.0358 0.44992 16.82801 2.44097 4.33637 -10.66634 -3.54981 -2.47977 -1.16731 -5.22362 -0.78169 -7.56402 -18.72985 13.38912 -2.78756 -5.0782
0.48761 0.55993 -0.27544 852.84367 0 -5.17367 -5.56475 8.17287 0.69392 -31.51983 -3.30969 -4.07474 11.42348 -10.03996 1.56113 8.00336 81.63325 -0.8025 -1.09365 19.59874 47.58858 -45.65673 90.92846 -81.42831 -0.17834 0.49958 16.69392 2.29204 4.5734 -7.87637 -3.47171 -2.25392 -0.30494 -5.86859 -0.64769 -7.95872 -19.03587 13.78452 -3.30421 -5.47238
0.48346 0.55873 -0.28476 853.67776 0 -4.93305 -5.52118 8.03219 0.74013 -31.46458 -3.31166 -4.03383 11.69267 -10.03317 1.4694 7.95274 81.61275 -0.90347 -1.2223 19.54153 47.55508 -45.68095 90.84917 -81.40958 -0.13975 0.62258 16.7132 2.32891 5.1575 -7.68421 -3.71853 -2.22685 -0.18123 -6.32281 -0.42891 -8.37711 -19.79931 14.01592 -3.86981 -5.95401
0.47918 0.55756 -0.29452 854.53703 0 -4.69204 -5.42288 7.88963 0.7847 -31.47066 -3.31395 -3.98727 12.20595 -10.04719 1.33834 7.92025 81.56859 -1.08267 -1.4135 19.57106 47.53007 -45.72734 90.75364 -81.46667 -0.02083 0.77328 16.77771 2.44163 5.83121 -8.4684 -4.0757 -2.2678 -0.31273 -6.67439 -0.16685 -8.78888 -20.78386 14.16343 -4.43573 -6.47551
0.47495 0.55641 -0.3041 855.38336 0 -4.46279 -5.34482 7.75989 0.8337 -31.45498 -3.3208 -3.94277 12.63032 -10.04696 1.20942 7.88199 81.5341 -1.22269 -1.57278 19.56874 47.50194 -45.76573 90.66461 -81.48516 0.0526 0.91007 16.81629 2.52857 6.42981 -8.82841 -4.37521 -2.27654 -0.31658 -7.04062 0.08894 -9.18709 -21.72051 14.32338 -4.97831 -6.98816
0.47077 0.5551 -0.3136 856.23442 0 -4.18522 -5.28536 7.58087 0.86931 -31.41405 -3.31037 -3.90037 12.96678 -10.06429 1.13752 7.83261 81.50606 -1.37687 -1.74762 19.53529 47.47129 -45.7956 90.57788 -81.51754 0.15947 1.05381 16.87806 2.57979 7.169 -9.12058 -4.70851 -2.28856 -0.36288 -7.54622 0.29091 -9.65331 -22.43441 14.59895 -5.6224 -7.4659
0.46646 0.55414 -0.32336 857.08293 0 -4.00739 -5.17524 7.50277 0.9314 -31.43877 -3.33418 -3.85174 13.54343 -10.05236 0.94598 7.81184 81.45865 -1.52096 -1.90533 19.58681 47.44731 -45.84947 90.48361 -81.54071 0.21861 1.18906 16.89894 2.72258 7.63783 -9.77483 -4.99479 -2.31064 -0.38607 -7.73012 0.61277 -9.97776 -23.6697 14.60533 -6.05228 -8.02151
0.46175 0.55412 -0.33382 857.90845 0 -4.11222 -4.92999 7.71341 1.06971 -31.64592 -3.46274 -3.79346 14.71145 -9.93798 0.37316 7.85505 81.35822 -1.61348 -1.99135 19.85348 47.44372 -45.95039 90.36504 -81.51573 0.11248 1.29487 16.83456 3.10524 7.3455 -11.25782 -5.14976 -2.3452 -0.2568 -7.11827 1.27202 -9.90229 -26.23006 13.96329 -5.90904 -8.81211
0.45692 0.55445 -0.34453 858.73179 0 -4.31591 -4.63734 8.02356 1.23429 -31.91422 -3.6237 -3.72784 16.11453 -9.79676 -0.30721 7.9284 81.23966 -1.69409 -2.05943 20.20214 47.44553 -46.07681 90.24059 -81.48004 -0.04149 1.39086 16.72071 3.57608 6.7778 -13.05747 -5.24916 -2.38768 -0.10056 -6.17481 2.04651 -9.68565 -29.31529 13.04238 -5.54692 -9.67164
0.45217 0.55463 -0.35507 859.5635 0 -4.46999 -4.37196 8.28215 1.38435 -32.14394 -3.76271 -3.66192 17.41657 -9.6787 -0.89768 7.99483 81.13266 -1.78327 -2.14149 20.51211 47.4425 -46.20074 90.12426 -81.45251 -0.16395 1.49065 16.60451 4.00311 6.33159 -14.66671 -5.3569 -2.42591 0.02502 -5.33801 2.7577 -9.54138 -32.20295 12.19628 -5.27209 -10.48288
0.44732 0.55477 -0.36584 860.36769 0 -4.64479 -4.0802 8.56859 1.54383 -32.42096 -3.9318 -3.61204 18.70122 -9.51468 -1.66137 8.03317 81.01128 -1.86192 -2.20122 20.83153 47.4508 -46.28813 89.98576 -81.41392 -0.32461 1.59424 16.59454 4.44953 5.90208 -16.50723 -5.53863 -2.46894 0.21775 -4.67969 3.51896 -9.36535 -34.93732 11.55358 -5.04699 -11.37669
0.44264 0.55509 -0.37619 861.22489 0 -4.7987 -3.83318 8.81925 1.69174 -32.61365 -4.04648 -3.52595 20.07671 -9.44023 -2.09103 8.13708 80.91532 -1.95857 -2.3023 21.14911 47.43546 -46.45605 89.89047 -81.39454 -0.41848 1.68722 16.35115 4.87431 5.37345 -17.92755 -5.55321 -2.50331 0.28247 -3.57705 4.19972 -9.21807 -38.0979 10.43825 -4.66852 -12.10242
0.43845 0.55585 -0.38541 862.25904 0 -4.88118 -3.71879 8.95917 1.78563 -32.5542 -3.99835 -3.35164 21.62671 -9.61531 -1.5561 8.41404 80.89897 -2.10839 -2.52251 21.44522 47.36424 -46.85144 89.93209 -81.43331 -0.31356 1.7527 15.47328 5.22773 4.61936 -18.1123 -5.10538 -2.50864 -0.03089 -1.28805 4.65559 -9.21972 -42.42849 7.9475 -3.90115 -12.45278
0.43443 0.55679 -0.39419 863.34111 0 -4.93738 -3.65185 9.05747 1.86972 -32.40815 -3.89528 -3.13952 23.26189 -9.88193 -0.68384 8.75644 80.90831 -2.27638 -2.78464 21.73537 47.26723 -47.32476 90.0149 -81.49096 -0.14092 1.80769 14.36225 5.55417 3.77822 -17.85763 -4.49336 -2.50524 -0.46977 1.42804 5.0215 -9.24935 -47.14299 5.01682 -2.99076 -12.61429
0.43033 0.55766 -0.40312 864.38117 0 -4.99858 -3.56508 9.1665 1.96875 -32.30447 -3.82033 -2.9379 24.86967 -10.10973 0.02349 9.06863 80.90235 -2.43509 -3.02676 22.02561 47.17465 -47.75484 90.06778 -81.53796 -0.00108 1.86789 13.35919 5.8859 2.98902 -17.79802 -3.96544 -2.50758 -0.8376 3.92213 5.41154 -9.24242 -51.60483 2.37906 -2.15792 -12.78946
0.42625 0.55852 -0.41227 865.50573 0 -5.09201 -3.46916 9.31298 2.02506 -32.19077 -3.73291 -2.76332 26.43967 -10.32591 0.77528 9.38201 80.90981 -2.59713 -3.27194 22.33044 47.11205 -48.21884 90.16596 -81.59338 0.14677 1.92639 12.34637 6.2498 2.13784 -17.77068 -3.39571 -2.50275 -1.26216 6.54782 5.87625 -9.32848 -56.4279 -0.6603 -1.26338 -13.261
0.42215 0.55942 -0.42084 866.46678 0 -5.11144 -3.40438 9.37098 2.16686 -32.07591 -3.65835 -2.52468 28.10348 -10.58706 1.51708 9.71037 80.89721 -2.75747 -3.52147 22.60162 46.98205 -48.63037 90.18192 -81.63587 0.29326 1.98543 11.29862 6.53963 1.39885 -17.56624 -2.87469 -2.51067 -1.60075 8.99379 6.1627 -9.23279 -60.56698 -2.96498 -0.46759 -13.08296
0.41799 0.56042 -0.42799 866.95496 0 -4.92695 -3.41266 9.18836 2.55396 -31.98411 -3.62954 -2.10849 30.02057 -10.96142 2.14062 10.04445 80.81377 -2.90291 -3.76798 22.78691 46.66155 -48.87744 89.94114 -81.63814 0.43147 2.05424 10.21672 6.6265 0.99053 -16.98897 -2.52899 -2.55583 -1.65304 10.85929 5.97715 -8.59819 -62.85271 -3.12315 0.03066 -11.04058
0.4138 0.56144 -0.43456 867.27873 0 -4.66957 -3.45119 8.91887 3.02594 -31.89276 -3.61597 -1.63106 32.02454 -11.37578 2.74495 10.39511 80.71383 -3.04783 -4.01842 22.93688 46.27605 -49.06882 89.6197 -81.62681 0.56417 2.12299 9.10737 6.64024 0.69955 -16.246 -2.23789 -2.6142 -1.61788 12.52287 5.6153 -7.78515 -64.40773 -2.52741 0.42138 -8.37228
